<svg width="431" height="135" viewBox="0 0 431 135" fill="none" xmlns="http://www.w3.org/2000/svg">
<g clip-path="url(#clip0_1_12)">
<path d="M182.664 95.04L183.816 82.656H217.128L218.184 95.04H182.664ZM200.232 65.472L190.824 87.168L191.592 90.72L183.24 108H164.904L200.232 36.576L235.656 108H217.224L209.16 91.392L209.736 87.264L200.232 65.472ZM230.524 63.84H245.981L256.156 88.32L266.237 63.84H281.693L256.156 113.184L230.524 63.84ZM298.334 94.176C298.334 95.328 298.622 96.32 299.198 97.152C299.774 97.92 300.542 98.528 301.502 98.976C302.462 99.36 303.518 99.552 304.67 99.552C306.334 99.552 307.87 99.2 309.278 98.496C310.686 97.792 311.838 96.736 312.734 95.328C313.63 93.92 314.078 92.192 314.078 90.144L315.614 95.904C315.614 98.72 314.846 101.12 313.31 103.104C311.774 105.024 309.79 106.496 307.358 107.52C304.926 108.48 302.302 108.96 299.486 108.96C296.67 108.96 294.046 108.448 291.614 107.424C289.246 106.336 287.326 104.736 285.854 102.624C284.446 100.512 283.742 97.952 283.742 94.944C283.742 90.72 285.246 87.392 288.254 84.96C291.262 82.464 295.518 81.216 301.022 81.216C303.71 81.216 306.11 81.472 308.222 81.984C310.398 82.496 312.254 83.136 313.79 83.904C315.326 84.672 316.478 85.472 317.246 86.304V92.736C315.71 91.584 313.918 90.72 311.87 90.144C309.886 89.504 307.774 89.184 305.534 89.184C303.806 89.184 302.43 89.376 301.406 89.76C300.382 90.144 299.614 90.72 299.102 91.488C298.59 92.192 298.334 93.088 298.334 94.176ZM291.902 77.376L287.006 67.68C289.502 66.464 292.51 65.312 296.03 64.224C299.55 63.136 303.39 62.592 307.55 62.592C311.454 62.592 314.942 63.168 318.014 64.32C321.086 65.408 323.518 67.008 325.31 69.12C327.102 71.232 327.998 73.824 327.998 76.896V108H314.078V80.16C314.078 79.072 313.886 78.144 313.502 77.376C313.182 76.544 312.67 75.84 311.966 75.264C311.262 74.688 310.366 74.272 309.278 74.016C308.254 73.76 307.07 73.632 305.726 73.632C303.742 73.632 301.79 73.856 299.87 74.304C298.014 74.752 296.382 75.296 294.974 75.936C293.566 76.512 292.542 76.992 291.902 77.376ZM367.556 81.12C367.556 78.496 367.044 76.48 366.02 75.072C365.06 73.664 363.428 72.96 361.124 72.96C359.588 72.96 358.244 73.28 357.092 73.92C355.94 74.56 355.044 75.488 354.404 76.704C353.764 77.92 353.444 79.392 353.444 81.12V108H338.852V63.84H353.444V70.464C354.724 68.032 356.452 66.144 358.628 64.8C360.868 63.456 363.62 62.784 366.884 62.784C372.388 62.784 376.388 64.256 378.884 67.2C381.38 70.144 382.628 74.272 382.628 79.584V108H367.556V81.12ZM388.886 63.84H418.454V75.84H388.886V63.84ZM396.662 48.48H410.582V108H396.662V48.48Z" fill="#066EFC"/>
<path d="M35.5373 135H0L39.2666 64.33L56.9887 96.2254L35.5373 135Z" fill="#066EFC"/>
<path d="M112.535 67.5118L94.8128 99.4073L75.0233 63.6364L55.2339 99.4073L37.5117 67.5118L75.0233 -7.62939e-06L112.535 67.5118Z" fill="#066EFC"/>
<path d="M150 135H114.463L93.0112 96.2254L110.733 64.33L150 135Z" fill="#066EFC"/>
</g>
<defs>
<clipPath id="clip0_1_12">
<rect width="431" height="135" fill="white"/>
</clipPath></defs>
</svg>