<svg width="464" height="376" viewBox="0 0 464 376" fill="none" xmlns="http://www.w3.org/2000/svg">
<path d="M32 0H432C440.487 0 448.626 3.37142 454.627 9.37258C460.629 15.3737 464 23.5131 464 32V340C464 349.548 460.207 358.705 453.456 365.456C446.705 372.207 437.548 376 428 376H36C26.4522 376 17.2955 372.207 10.5442 365.456C3.79285 358.705 0 349.548 0 340V32C0 23.5131 3.37142 15.3737 9.37258 9.37258C15.3737 3.37142 23.5131 0 32 0V0Z" fill="#ECF3FF"/>
<path d="M432 0H32C23.5131 0 15.3737 3.37142 9.37258 9.37258C3.37142 15.3737 0 23.5131 0 32V85.732H464V32C464 23.5131 460.629 15.3737 454.627 9.37258C448.626 3.37142 440.487 0 432 0V0Z" fill="#066EFC"/>
<path d="M62.2803 58.8672C71.1168 58.8672 78.2803 51.7037 78.2803 42.8672C78.2803 34.0306 71.1168 26.8672 62.2803 26.8672C53.4437 26.8672 46.2803 34.0306 46.2803 42.8672C46.2803 51.7037 53.4437 58.8672 62.2803 58.8672Z" fill="#EC7086"/>
<path d="M126.504 58.8672C135.34 58.8672 142.504 51.7037 142.504 42.8672C142.504 34.0306 135.34 26.8672 126.504 26.8672C117.667 26.8672 110.504 34.0306 110.504 42.8672C110.504 51.7037 117.667 58.8672 126.504 58.8672Z" fill="#D8D2F8"/>
<path d="M464 32C464 23.5131 460.629 15.3737 454.628 9.37258C448.626 3.37142 440.487 0 432 0H217.048L176.496 85.732H464V32Z" fill="#3586F4"/>
<path d="M425.068 49.8633H246.088C244.231 49.8633 242.451 49.1258 241.138 47.813C239.825 46.5003 239.088 44.7198 239.088 42.8633C239.088 41.0068 239.825 39.2263 241.138 37.9135C242.451 36.6008 244.231 35.8633 246.088 35.8633H425.068C426.924 35.8633 428.705 36.6008 430.018 37.9135C431.33 39.2263 432.068 41.0068 432.068 42.8633C432.068 44.7198 431.33 46.5003 430.018 47.813C428.705 49.1258 426.924 49.8633 425.068 49.8633V49.8633Z" fill="#95BDF3" fill-opacity="0.63"/>
<path d="M63.1123 333.863C62.1929 333.864 61.2824 333.683 60.4329 333.331C59.5834 332.98 58.8115 332.464 58.1614 331.814C57.5113 331.164 56.9957 330.392 56.6441 329.543C56.2925 328.693 56.1118 327.783 56.1123 326.863V134.863C56.1123 133.007 56.8498 131.226 58.1626 129.914C59.4753 128.601 61.2558 127.863 63.1123 127.863C64.9688 127.863 66.7493 128.601 68.0621 129.914C69.3748 131.226 70.1123 133.007 70.1123 134.863V326.863C70.1123 328.72 69.3748 330.5 68.0621 331.813C66.7493 333.126 64.9688 333.863 63.1123 333.863V333.863Z" fill="#066EFC"/>
<path d="M101.76 172H146.852V326.868H101.76V172Z" fill="#F76464"/>
<path d="M178.908 208H224V326.868H178.908V208Z" fill="#42DD82"/>
<path d="M414.74 168.863H298.74C296.884 168.863 295.103 168.126 293.79 166.813C292.478 165.5 291.74 163.72 291.74 161.863C291.74 160.007 292.478 158.226 293.79 156.914C295.103 155.601 296.884 154.863 298.74 154.863H414.74C416.597 154.863 418.377 155.601 419.69 156.914C421.003 158.226 421.74 160.007 421.74 161.863C421.74 163.72 421.003 165.5 419.69 166.813C418.377 168.126 416.597 168.863 414.74 168.863V168.863Z" fill="#80B2F8"/>
<path d="M414.74 214.863H298.74C296.884 214.863 295.103 214.126 293.79 212.813C292.478 211.5 291.74 209.72 291.74 207.863C291.74 206.007 292.478 204.226 293.79 202.914C295.103 201.601 296.884 200.863 298.74 200.863H414.74C416.597 200.863 418.377 201.601 419.69 202.914C421.003 204.226 421.74 206.007 421.74 207.863C421.74 209.72 421.003 211.5 419.69 212.813C418.377 214.126 416.597 214.863 414.74 214.863V214.863Z" fill="#80B2F8"/>
<path d="M414.74 260.863H298.74C296.884 260.863 295.103 260.126 293.79 258.813C292.478 257.5 291.74 255.72 291.74 253.863C291.74 252.007 292.478 250.226 293.79 248.914C295.103 247.601 296.884 246.863 298.74 246.863H414.74C416.597 246.863 418.377 247.601 419.69 248.914C421.003 250.226 421.74 252.007 421.74 253.863C421.74 255.72 421.003 257.5 419.69 258.813C418.377 260.126 416.597 260.863 414.74 260.863Z" fill="#80B2F8"/>
<path d="M414.74 306.863H298.74C296.884 306.863 295.103 306.126 293.79 304.813C292.478 303.5 291.74 301.72 291.74 299.863C291.74 298.007 292.478 296.226 293.79 294.914C295.103 293.601 296.884 292.863 298.74 292.863H414.74C416.597 292.863 418.377 293.601 419.69 294.914C421.003 296.226 421.74 298.007 421.74 299.863C421.74 301.72 421.003 303.5 419.69 304.813C418.377 306.126 416.597 306.863 414.74 306.863Z" fill="#80B2F8"/>
<path d="M248 333.863H35.6641C33.8075 333.863 32.0271 333.126 30.7143 331.813C29.4016 330.5 28.6641 328.72 28.6641 326.863C28.6641 325.007 29.4016 323.226 30.7143 321.914C32.0271 320.601 33.8075 319.863 35.6641 319.863H248C249.857 319.863 251.637 320.601 252.95 321.914C254.263 323.226 255 325.007 255 326.863C255 328.72 254.263 330.5 252.95 331.813C251.637 333.126 249.857 333.863 248 333.863V333.863Z" fill="#5EA1FC"/>
</svg>
