<svg width="512" height="512" viewBox="0 0 512 512" fill="none" xmlns="http://www.w3.org/2000/svg">
<path d="M271 347H246L256 512H271V347Z" fill="#E1E6F1"/>
<path d="M482 347H256L246 15H482V347Z" fill="#E1E6F1"/>
<path d="M303.001 354.492L328.981 339.492L419.908 496.979L393.928 511.979L303.001 354.492Z" fill="#E1E6F1"/>
<path d="M92.0713 496.99L182.999 339.504L208.979 354.504L118.051 511.99L92.0713 496.99Z" fill="#ECF3FF"/>
<path d="M30 15H256V347H30V15Z" fill="#ECF3FF" fill-opacity="0.98"/>
<path d="M90 76H180.667V106H90V76Z" fill="#42DD82"/>
<path d="M90 136H180.667V166H90V136Z" fill="#42DD82"/>
<path d="M90 196H180.667V226H90V196Z" fill="#42DD82"/>
<path d="M90 256H180.667V286H90V256Z" fill="#42DD82"/>
<path d="M331.333 76H422V106H331.333V76Z" fill="#066EFC"/>
<path d="M331.333 136H422V166H331.333V136Z" fill="#066EFC"/>
<path d="M331.333 196H422V226H331.333V196Z" fill="#066EFC"/>
<path d="M331.333 256H422V286H331.333V256Z" fill="#066EFC"/>
<path d="M241 347H256V512H241V347Z" fill="#ECF3FF"/>
<path d="M512 0H256L246 15L256 30H512V0Z" fill="#060627"/>
<path d="M512 362V332H256L246 347L256 362H512Z" fill="#060627"/>
<path d="M0 332H256V362H0V332Z" fill="#060627" fill-opacity="0.76"/>
<path d="M0 0H256V30H0V0Z" fill="#060627" fill-opacity="0.82"/>
<path d="M301.333 76H256L246 91L256 106H301.333V76Z" fill="#5399F9"/>
<path d="M301.333 136H256L246 151L256 166H301.333V136Z" fill="#5399F9"/>
<path d="M301.333 196H256L246 211L256 226H301.333V196Z" fill="#5399F9"/>
<path d="M301.333 256H256L246 271L256 286H301.333V256Z" fill="#5399F9"/>
<path d="M210.667 76H256V106H210.667V76Z" fill="#ABCCF8"/>
<path d="M210.667 136H256V166H210.667V136Z" fill="#ABCCF8"/>
<path d="M210.667 196H256V226H210.667V196Z" fill="#ABCCF8"/>
<path d="M210.667 256H256V286H210.667V256Z" fill="#ABCCF8"/>
</svg>
