
<svg width="734" height="360" viewBox="0 0 734 360" fill="none" xmlns="http://www.w3.org/2000/svg">
<path d="M18 203.021V27.5214C18.0023 25.5273 18.7954 23.6155 20.2055 22.2055C21.6155 20.7954 23.5273 20.0023 25.5214 20H164.25C166.244 20.0023 168.156 20.7955 169.566 22.2055C170.976 23.6156 171.769 25.5273 171.771 27.5214V203.021C171.769 205.016 170.976 206.927 169.566 208.337C168.156 209.747 166.244 210.541 164.25 210.543H25.5214C23.5273 210.541 21.6155 209.747 20.2055 208.337C18.7954 206.927 18.0023 205.016 18 203.021ZM25.5214 21.6714C23.9704 21.6732 22.4835 22.2901 21.3868 23.3868C20.2901 24.4835 19.6732 25.9705 19.6714 27.5214V203.021C19.6732 204.572 20.2901 206.059 21.3868 207.156C22.4835 208.253 23.9704 208.87 25.5214 208.871H164.25C165.801 208.87 167.288 208.253 168.385 207.156C169.481 206.059 170.098 204.572 170.1 203.021V27.5214C170.098 25.9705 169.481 24.4835 168.385 23.3868C167.288 22.2901 165.801 21.6732 164.25 21.6714H25.5214Z" fill="#D0D8E9"/>
<path d="M117 187.796V151.761C117.001 150.764 117.398 149.808 118.103 149.103C118.808 148.398 119.764 148.001 120.761 148H151.298C152.295 148.001 153.251 148.398 153.956 149.103C154.661 149.808 155.057 150.764 155.058 151.761V187.796C155.057 188.793 154.661 189.749 153.956 190.454C153.251 191.159 152.295 191.556 151.298 191.557H120.761C119.764 191.556 118.808 191.159 118.103 190.454C117.398 189.749 117.001 188.793 117 187.796Z" fill="#DAE1EF"/>
<path d="M41 133.796V97.7607C41.0011 96.7636 41.3977 95.8077 42.1027 95.1027C42.8078 94.3977 43.7637 94.0011 44.7607 94H75.2977C76.2948 94.0011 77.2507 94.3977 77.9557 95.1027C78.6608 95.8077 79.0574 96.7636 79.0585 97.7607V133.796C79.0574 134.793 78.6608 135.749 77.9557 136.454C77.2507 137.159 76.2948 137.556 75.2977 137.557H44.7607C43.7637 137.556 42.8078 137.159 42.1027 136.454C41.3977 135.749 41.0011 134.793 41 133.796Z" fill="#BEC9E1"/>
<path d="M117 76.7964V40.7607C117.001 39.7637 117.398 38.8078 118.103 38.1027C118.808 37.3977 119.764 37.0011 120.761 37H151.298C152.295 37.0011 153.251 37.3977 153.956 38.1027C154.661 38.8078 155.057 39.7637 155.058 40.7607V76.7964C155.057 77.7935 154.661 78.7494 153.956 79.4544C153.251 80.1594 152.295 80.556 151.298 80.5571H120.761C119.764 80.556 118.808 80.1594 118.103 79.4544C117.398 78.7494 117.001 77.7935 117 76.7964Z" fill="#5A09F3"/>
<path d="M344.229 195.025H293.008C291.499 195.028 290.277 196.194 290.279 197.63V274.675H346.964V197.63C346.965 196.192 345.742 195.026 344.231 195.025H344.229ZM318.79 238.801C315.457 238.786 312.758 236.216 312.742 233.042V224.156C312.742 220.975 315.45 218.396 318.79 218.396C322.131 218.396 324.839 220.975 324.839 224.156V233.042C324.823 236.216 322.124 238.786 318.79 238.801Z" fill="#CCD5E7"/>
<path d="M290.103 272.211V279.644C290.105 280.446 290.787 281.096 291.629 281.097H345.614C346.455 281.093 347.136 280.445 347.14 279.644V272.211H290.103Z" fill="#9FAFD2"/>
<path d="M429.046 74.7891H210.096C206.18 74.795 203.006 77.8167 203 81.5459V222.228C203.004 225.958 206.179 228.981 210.096 228.985H429.046C432.963 228.981 436.138 225.958 436.142 222.228V81.5459C436.136 77.8167 432.962 74.795 429.046 74.7891Z" fill="#DAE0EE"/>
<path d="M427.218 79.6699H211.925C209.828 79.6743 208.131 81.2942 208.13 83.291V220.486C208.134 222.48 209.831 224.096 211.925 224.1H427.218C429.313 224.096 431.01 222.48 431.013 220.486V83.291C431.013 81.2942 429.315 79.6743 427.218 79.6699Z" fill="white"/>
<path d="M385.283 283.684H257.195C255.894 283.684 254.839 282.679 254.839 281.44C254.839 281.285 254.856 281.13 254.889 280.978L256.877 271.99C257.11 270.954 258.069 270.213 259.182 270.209H383.295C384.408 270.213 385.368 270.954 385.601 271.99L387.588 280.978C387.856 282.191 387.041 283.381 385.768 283.636C385.608 283.668 385.446 283.684 385.283 283.684Z" fill="#B0BDDA"/>
<path d="M263.547 271.827H260.582C260.311 271.827 260.092 272.036 260.092 272.294V273.614C260.092 273.872 260.311 274.081 260.582 274.081H263.547C263.817 274.081 264.037 273.872 264.037 273.614V272.294C264.037 272.036 263.817 271.827 263.547 271.827Z" fill="#DAE0EE"/>
<path d="M271.437 271.827H268.472C268.201 271.827 267.982 272.036 267.982 272.294V273.614C267.982 273.872 268.201 274.081 268.472 274.081H271.437C271.707 274.081 271.927 273.872 271.927 273.614V272.294C271.927 272.036 271.707 271.827 271.437 271.827Z" fill="#DAE0EE"/>
<path d="M279.327 271.827H276.362C276.092 271.827 275.872 272.036 275.872 272.294V273.614C275.872 273.872 276.092 274.081 276.362 274.081H279.327C279.598 274.081 279.817 273.872 279.817 273.614V272.294C279.817 272.036 279.598 271.827 279.327 271.827Z" fill="#DAE0EE"/>
<path d="M287.216 271.827H284.252C283.981 271.827 283.762 272.036 283.762 272.294V273.614C283.762 273.872 283.981 274.081 284.252 274.081H287.216C287.487 274.081 287.707 273.872 287.707 273.614V272.294C287.707 272.036 287.487 271.827 287.216 271.827Z" fill="#DAE0EE"/>
<path d="M295.107 271.827H292.142C291.871 271.827 291.652 272.036 291.652 272.294V273.614C291.652 273.872 291.871 274.081 292.142 274.081H295.107C295.377 274.081 295.597 273.872 295.597 273.614V272.294C295.597 272.036 295.377 271.827 295.107 271.827Z" fill="#DAE0EE"/>
<path d="M302.997 271.827H300.032C299.761 271.827 299.542 272.036 299.542 272.294V273.614C299.542 273.872 299.761 274.081 300.032 274.081H302.997C303.267 274.081 303.487 273.872 303.487 273.614V272.294C303.487 272.036 303.267 271.827 302.997 271.827Z" fill="#DAE0EE"/>
<path d="M310.886 271.827H307.922C307.651 271.827 307.432 272.036 307.432 272.294V273.614C307.432 273.872 307.651 274.081 307.922 274.081H310.886C311.157 274.081 311.377 273.872 311.377 273.614V272.294C311.377 272.036 311.157 271.827 310.886 271.827Z" fill="#DAE0EE"/>
<path d="M318.776 271.827H315.812C315.541 271.827 315.322 272.036 315.322 272.294V273.614C315.322 273.872 315.541 274.081 315.812 274.081H318.776C319.047 274.081 319.267 273.872 319.267 273.614V272.294C319.267 272.036 319.047 271.827 318.776 271.827Z" fill="#DAE0EE"/>
<path d="M326.667 271.827H323.702C323.431 271.827 323.212 272.036 323.212 272.294V273.614C323.212 273.872 323.431 274.081 323.702 274.081H326.667C326.937 274.081 327.157 273.872 327.157 273.614V272.294C327.157 272.036 326.937 271.827 326.667 271.827Z" fill="#DAE0EE"/>
<path d="M334.556 271.827H331.592C331.321 271.827 331.102 272.036 331.102 272.294V273.614C331.102 273.872 331.321 274.081 331.592 274.081H334.556C334.827 274.081 335.047 273.872 335.047 273.614V272.294C335.047 272.036 334.827 271.827 334.556 271.827Z" fill="#DAE0EE"/>
<path d="M342.446 271.827H339.481C339.211 271.827 338.991 272.036 338.991 272.294V273.614C338.991 273.872 339.211 274.081 339.481 274.081H342.446C342.717 274.081 342.936 273.872 342.936 273.614V272.294C342.936 272.036 342.717 271.827 342.446 271.827Z" fill="#DAE0EE"/>
<path d="M350.336 271.827H347.372C347.101 271.827 346.881 272.036 346.881 272.294V273.614C346.881 273.872 347.101 274.081 347.372 274.081H350.336C350.607 274.081 350.826 273.872 350.826 273.614V272.294C350.826 272.036 350.607 271.827 350.336 271.827Z" fill="#DAE0EE"/>
<path d="M358.226 271.827H355.262C354.991 271.827 354.771 272.036 354.771 272.294V273.614C354.771 273.872 354.991 274.081 355.262 274.081H358.226C358.497 274.081 358.716 273.872 358.716 273.614V272.294C358.716 272.036 358.497 271.827 358.226 271.827Z" fill="#DAE0EE"/>
<path d="M366.116 271.827H363.151C362.881 271.827 362.661 272.036 362.661 272.294V273.614C362.661 273.872 362.881 274.081 363.151 274.081H366.116C366.387 274.081 366.606 273.872 366.606 273.614V272.294C366.606 272.036 366.387 271.827 366.116 271.827Z" fill="#DAE0EE"/>
<path d="M374.006 271.827H371.042C370.771 271.827 370.551 272.036 370.551 272.294V273.614C370.551 273.872 370.771 274.081 371.042 274.081H374.006C374.277 274.081 374.496 273.872 374.496 273.614V272.294C374.496 272.036 374.277 271.827 374.006 271.827Z" fill="#DAE0EE"/>
<path d="M381.896 271.827H378.932C378.661 271.827 378.441 272.036 378.441 272.294V273.614C378.441 273.872 378.661 274.081 378.932 274.081H381.896C382.167 274.081 382.386 273.872 382.386 273.614V272.294C382.386 272.036 382.167 271.827 381.896 271.827Z" fill="#DAE0EE"/>
<path d="M263.454 275.583H260.489C260.219 275.583 259.999 275.792 259.999 276.05V277.37C259.999 277.628 260.219 277.837 260.489 277.837H263.454C263.725 277.837 263.944 277.628 263.944 277.37V276.05C263.944 275.792 263.725 275.583 263.454 275.583Z" fill="#DAE0EE"/>
<path d="M271.343 275.583H268.379C268.108 275.583 267.889 275.792 267.889 276.05V277.37C267.889 277.628 268.108 277.837 268.379 277.837H271.343C271.614 277.837 271.834 277.628 271.834 277.37V276.05C271.834 275.792 271.614 275.583 271.343 275.583Z" fill="#DAE0EE"/>
<path d="M279.234 275.583H276.269C275.998 275.583 275.779 275.792 275.779 276.05V277.37C275.779 277.628 275.998 277.837 276.269 277.837H279.234C279.504 277.837 279.724 277.628 279.724 277.37V276.05C279.724 275.792 279.504 275.583 279.234 275.583Z" fill="#DAE0EE"/>
<path d="M287.124 275.583H284.159C283.888 275.583 283.669 275.792 283.669 276.05V277.37C283.669 277.628 283.888 277.837 284.159 277.837H287.124C287.394 277.837 287.614 277.628 287.614 277.37V276.05C287.614 275.792 287.394 275.583 287.124 275.583Z" fill="#DAE0EE"/>
<path d="M295.013 275.583H292.049C291.778 275.583 291.559 275.792 291.559 276.05V277.37C291.559 277.628 291.778 277.837 292.049 277.837H295.013C295.284 277.837 295.504 277.628 295.504 277.37V276.05C295.504 275.792 295.284 275.583 295.013 275.583Z" fill="#DAE0EE"/>
<path d="M302.903 275.583H299.939C299.668 275.583 299.448 275.792 299.448 276.05V277.37C299.448 277.628 299.668 277.837 299.939 277.837H302.903C303.174 277.837 303.393 277.628 303.393 277.37V276.05C303.393 275.792 303.174 275.583 302.903 275.583Z" fill="#DAE0EE"/>
<path d="M310.793 275.583H307.829C307.558 275.583 307.338 275.792 307.338 276.05V277.37C307.338 277.628 307.558 277.837 307.829 277.837H310.793C311.064 277.837 311.283 277.628 311.283 277.37V276.05C311.283 275.792 311.064 275.583 310.793 275.583Z" fill="#DAE0EE"/>
<path d="M318.683 275.583H315.719C315.448 275.583 315.229 275.792 315.229 276.05V277.37C315.229 277.628 315.448 277.837 315.719 277.837H318.683C318.954 277.837 319.174 277.628 319.174 277.37V276.05C319.174 275.792 318.954 275.583 318.683 275.583Z" fill="#DAE0EE"/>
<path d="M326.573 275.583H323.608C323.338 275.583 323.118 275.792 323.118 276.05V277.37C323.118 277.628 323.338 277.837 323.608 277.837H326.573C326.844 277.837 327.063 277.628 327.063 277.37V276.05C327.063 275.792 326.844 275.583 326.573 275.583Z" fill="#DAE0EE"/>
<path d="M334.463 275.583H331.499C331.228 275.583 331.008 275.792 331.008 276.05V277.37C331.008 277.628 331.228 277.837 331.499 277.837H334.463C334.734 277.837 334.953 277.628 334.953 277.37V276.05C334.953 275.792 334.734 275.583 334.463 275.583Z" fill="#DAE0EE"/>
<path d="M342.353 275.583H339.389C339.118 275.583 338.898 275.792 338.898 276.05V277.37C338.898 277.628 339.118 277.837 339.389 277.837H342.353C342.624 277.837 342.843 277.628 342.843 277.37V276.05C342.843 275.792 342.624 275.583 342.353 275.583Z" fill="#DAE0EE"/>
<path d="M350.243 275.583H347.278C347.008 275.583 346.788 275.792 346.788 276.05V277.37C346.788 277.628 347.008 277.837 347.278 277.837H350.243C350.514 277.837 350.733 277.628 350.733 277.37V276.05C350.733 275.792 350.514 275.583 350.243 275.583Z" fill="#DAE0EE"/>
<path d="M358.133 275.583H355.168C354.898 275.583 354.678 275.792 354.678 276.05V277.37C354.678 277.628 354.898 277.837 355.168 277.837H358.133C358.404 277.837 358.623 277.628 358.623 277.37V276.05C358.623 275.792 358.404 275.583 358.133 275.583Z" fill="#DAE0EE"/>
<path d="M366.023 275.583H363.059C362.788 275.583 362.568 275.792 362.568 276.05V277.37C362.568 277.628 362.788 277.837 363.059 277.837H366.023C366.294 277.837 366.513 277.628 366.513 277.37V276.05C366.513 275.792 366.294 275.583 366.023 275.583Z" fill="#DAE0EE"/>
<path d="M373.913 275.583H370.948C370.678 275.583 370.458 275.792 370.458 276.05V277.37C370.458 277.628 370.678 277.837 370.948 277.837H373.913C374.183 277.837 374.403 277.628 374.403 277.37V276.05C374.403 275.792 374.183 275.583 373.913 275.583Z" fill="#DAE0EE"/>
<path d="M381.802 275.583H378.838C378.567 275.583 378.348 275.792 378.348 276.05V277.37C378.348 277.628 378.567 277.837 378.838 277.837H381.802C382.073 277.837 382.293 277.628 382.293 277.37V276.05C382.293 275.792 382.073 275.583 381.802 275.583Z" fill="#DAE0EE"/>
<path d="M416.396 98.5725H214.947C214.505 98.5632 214.154 98.2142 214.164 97.7929C214.173 97.3847 214.519 97.0559 214.947 97.0469H416.396C416.838 97.0561 417.189 97.4052 417.179 97.8264C417.17 98.2347 416.824 98.5635 416.396 98.5725Z" fill="#C2CCE2"/>
<path d="M330.66 217.152C333.253 217.152 335.355 215.106 335.355 212.582C335.355 210.058 333.253 208.012 330.66 208.012C328.067 208.012 325.965 210.058 325.965 212.582C325.965 215.106 328.067 217.152 330.66 217.152Z" fill="#B0BDDA"/>
<path d="M244.878 93.1516C247.471 93.1516 249.573 91.1056 249.573 88.5817C249.573 86.0578 247.471 84.0117 244.878 84.0117C242.286 84.0117 240.184 86.0578 240.184 88.5817C240.184 91.1056 242.286 93.1516 244.878 93.1516Z" fill="#B0BDDA"/>
<path d="M261.097 93.1516C263.69 93.1516 265.792 91.1056 265.792 88.5817C265.792 86.0578 263.69 84.0117 261.097 84.0117C258.504 84.0117 256.402 86.0578 256.402 88.5817C256.402 91.1056 258.504 93.1516 261.097 93.1516Z" fill="#B0BDDA"/>
<path d="M315.465 110.138L314.814 108.328L398.022 67.1621L398.672 68.9722L315.465 110.138Z" fill="#9FAFD2"/>
<path d="M566.521 186.387L565.87 184.577L615.938 143.619L616.588 145.428L566.521 186.387Z" fill="#9FAFD2"/>
<path d="M470.326 195.922L387.118 154.755L387.769 152.945L470.976 194.111L470.326 195.922Z" fill="#9FAFD2"/>
<path d="M512.92 167.275L464.14 91.0227L465.682 89.7959L514.461 166.049L512.92 167.275Z" fill="#9FAFD2"/>
<path d="M637.047 79.7781H583.823C576.613 79.7781 570.769 74.2127 570.769 67.3475C570.769 60.4823 576.613 54.917 583.823 54.917H637.047C644.257 54.917 650.102 60.4823 650.102 67.3475C650.102 74.2127 644.257 79.7781 637.047 79.7781Z" fill="#5A09F3"/>
<path d="M703.326 152.449H650.102C642.892 152.449 637.047 146.884 637.047 140.018C637.047 133.153 642.892 127.588 650.102 127.588H703.326C710.536 127.588 716.381 133.153 716.381 140.018C716.381 146.884 710.536 152.449 703.326 152.449Z" fill="#5A09F3"/>
<path d="M617.267 203.695L569.76 203.488V201.575L617.267 201.783V203.695Z" fill="#9FAFD2"/>
<path d="M703.326 215.558H650.102C642.892 215.558 637.047 209.993 637.047 203.128C637.047 196.263 642.892 190.697 650.102 190.697H703.326C710.536 190.697 716.381 196.263 716.381 203.128C716.381 209.993 710.536 215.558 703.326 215.558Z" fill="#5A09F3"/>
<path d="M547.671 206.991H494.448C487.238 206.991 481.393 201.426 481.393 194.56C481.393 187.695 487.238 182.13 494.448 182.13H547.671C554.882 182.13 560.726 187.695 560.726 194.56C560.726 201.426 554.882 206.991 547.671 206.991Z" fill="#5A09F3"/>
<path d="M475.368 78.8611H422.144C414.934 78.8611 409.089 73.2957 409.089 66.4305C409.089 59.5653 414.934 54 422.144 54H475.368C482.578 54 488.422 59.5653 488.422 66.4305C488.422 73.2957 482.578 78.8611 475.368 78.8611Z" fill="#5A09F3"/>
<path d="M362.255 195.517H275.939C268.442 195.509 262.367 189.724 262.358 182.586V128.127C262.367 120.989 268.442 115.204 275.939 115.196H362.255C369.752 115.204 375.827 120.989 375.835 128.127V182.586C375.827 189.724 369.752 195.509 362.255 195.517ZM275.939 117.109C269.551 117.116 264.374 122.045 264.367 128.127V182.586C264.374 188.668 269.551 193.597 275.939 193.604H362.255C368.643 193.597 373.82 188.668 373.827 182.586V128.127C373.82 122.045 368.643 117.116 362.255 117.109L275.939 117.109Z" fill="#DAE0EE"/>
<path d="M301.514 132.408H278.426V134.321H301.514V132.408Z" fill="#DAE0EE"/>
<path d="M329.641 140.058H278.426V141.97H329.641V140.058Z" fill="#DAE0EE"/>
<path d="M329.641 146.751H278.426V148.663H329.641V146.751Z" fill="#DAE0EE"/>
<path d="M343.7 153.444H278.426V155.357H343.7V153.444Z" fill="#DAE0EE"/>
<path d="M312.569 160.138H278.426V162.05H312.569V160.138Z" fill="#DAE0EE"/>
<path d="M340.688 166.831H278.426V168.743H340.688V166.831Z" fill="#DAE0EE"/>
<path d="M289.472 173.524H278.426V175.437H289.472V173.524Z" fill="#DAE0EE"/>
<path d="M277.674 91.2522C277.576 91.2522 277.479 91.2162 277.406 91.1447L275.263 89.059C275.12 88.9201 275.12 88.698 275.263 88.559L277.406 86.4736C277.551 86.3325 277.789 86.3302 277.937 86.468C278.085 86.6061 278.087 86.8325 277.942 86.9736L276.057 88.809L277.942 90.6446C278.087 90.7857 278.085 91.0122 277.937 91.1503C277.864 91.2183 277.769 91.2522 277.674 91.2522V91.2522Z" fill="#B0BDDA"/>
<path d="M281.275 91.2515C281.18 91.2515 281.085 91.2176 281.012 91.1495C280.864 91.0114 280.861 90.7852 281.007 90.6439L282.892 88.8083L281.007 86.9729C280.861 86.8318 280.864 86.6054 281.012 86.4673C281.16 86.329 281.398 86.3316 281.543 86.4729L283.686 88.5583C283.829 88.6973 283.829 88.9194 283.686 89.0583L281.543 91.1439C281.47 91.2155 281.372 91.2515 281.275 91.2515V91.2515Z" fill="#B0BDDA"/>
<path d="M393.369 86.0752H389.385C388.93 86.0752 388.562 86.4256 388.562 86.8582V90.6555C388.562 91.0881 388.93 91.4385 389.385 91.4385H393.369C393.823 91.4385 394.195 91.0881 394.195 90.6555V86.8582C394.195 86.4256 393.823 86.0752 393.369 86.0752Z" fill="#B0BDDA"/>
<path d="M383.606 86.0752H379.622C379.167 86.0752 378.799 86.4256 378.799 86.8582V90.6555C378.799 91.0881 379.167 91.4385 379.622 91.4385H383.606C384.06 91.4385 384.432 91.0881 384.432 90.6555V86.8582C384.432 86.4256 384.06 86.0752 383.606 86.0752Z" fill="#B0BDDA"/>
<path d="M402.569 86.2539H398.585C398.131 86.2539 397.763 86.6043 397.763 87.037V90.8342C397.763 91.2668 398.131 91.6172 398.585 91.6172H402.569C403.024 91.6172 403.395 91.2668 403.395 90.8342V87.037C403.395 86.6043 403.024 86.2539 402.569 86.2539Z" fill="#B0BDDA"/>
<path d="M342.516 87.6992H310.669C310.113 87.6992 309.667 88.1283 309.667 88.6539C309.667 89.1795 310.113 89.6086 310.669 89.6086H342.516C343.068 89.6086 343.519 89.1795 343.519 88.6539C343.519 88.1283 343.068 87.6992 342.516 87.6992Z" fill="#B0BDDA"/>
<path d="M701.706 254.635V282.161H632.744C630.897 282.225 629.055 281.917 627.329 281.254C625.603 280.592 624.028 279.588 622.698 278.304C621.369 277.019 620.311 275.48 619.589 273.779C618.866 272.077 618.494 270.247 618.494 268.398C618.494 266.549 618.866 264.72 619.589 263.018C620.311 261.316 621.369 259.777 622.698 258.493C624.028 257.208 625.603 256.205 627.329 255.542C629.055 254.879 630.897 254.571 632.744 254.635H701.706Z" fill="#DAE0EE"/>
<path d="M703.4 281.949C703.4 282.23 703.289 282.499 703.09 282.698C702.892 282.896 702.622 283.008 702.342 283.008H631.516C629.61 283.009 627.723 282.635 625.962 281.907C624.201 281.179 622.6 280.111 621.252 278.764C619.904 277.417 618.835 275.818 618.105 274.057C617.376 272.297 617 270.41 617 268.504C617 266.598 617.376 264.711 618.105 262.951C618.835 261.19 619.904 259.591 621.252 258.244C622.6 256.897 624.201 255.829 625.962 255.101C627.723 254.372 629.61 253.998 631.516 254H702.342C702.623 254 702.892 254.112 703.09 254.31C703.289 254.509 703.4 254.778 703.4 255.059C703.4 255.339 703.289 255.609 703.09 255.807C702.892 256.006 702.623 256.117 702.342 256.117H631.516C628.233 256.12 625.085 257.427 622.765 259.749C620.444 262.072 619.141 265.221 619.141 268.504C619.141 271.787 620.444 274.936 622.765 277.259C625.085 279.581 628.233 280.888 631.516 280.891H702.342C702.622 280.891 702.892 281.002 703.09 281.201C703.289 281.399 703.4 281.668 703.4 281.949Z" fill="#9FAFD2"/>
<path d="M701.707 266.069H627.599C627.571 266.069 627.543 266.064 627.517 266.053C627.492 266.043 627.468 266.027 627.448 266.007C627.428 265.988 627.413 265.964 627.402 265.939C627.391 265.913 627.386 265.885 627.386 265.857C627.386 265.829 627.391 265.802 627.402 265.776C627.413 265.75 627.428 265.727 627.448 265.707C627.468 265.687 627.492 265.672 627.517 265.661C627.543 265.651 627.571 265.645 627.599 265.646H701.707C701.763 265.646 701.816 265.668 701.855 265.708C701.895 265.748 701.917 265.801 701.917 265.857C701.917 265.913 701.895 265.967 701.855 266.006C701.816 266.046 701.763 266.069 701.707 266.069Z" fill="#BEC9E1"/>
<path d="M701.707 271.151H627.599C627.571 271.151 627.543 271.146 627.517 271.135C627.492 271.125 627.468 271.109 627.448 271.089C627.428 271.07 627.413 271.046 627.402 271.021C627.391 270.995 627.386 270.967 627.386 270.939C627.386 270.911 627.391 270.884 627.402 270.858C627.413 270.832 627.428 270.809 627.448 270.789C627.468 270.769 627.492 270.754 627.517 270.743C627.543 270.733 627.571 270.727 627.599 270.728H701.707C701.763 270.728 701.816 270.75 701.855 270.79C701.895 270.83 701.917 270.883 701.917 270.939C701.917 270.995 701.895 271.049 701.855 271.089C701.816 271.128 701.763 271.151 701.707 271.151Z" fill="#BEC9E1"/>
<path d="M701.707 276.232H627.599C627.571 276.232 627.543 276.227 627.517 276.216C627.492 276.206 627.468 276.19 627.448 276.171C627.428 276.151 627.413 276.127 627.402 276.102C627.391 276.076 627.386 276.048 627.386 276.02C627.386 275.992 627.391 275.965 627.402 275.939C627.413 275.913 627.428 275.89 627.448 275.87C627.468 275.85 627.492 275.835 627.517 275.824C627.543 275.814 627.571 275.808 627.599 275.809H701.707C701.763 275.809 701.816 275.831 701.855 275.871C701.895 275.911 701.917 275.964 701.917 276.02C701.917 276.076 701.895 276.13 701.855 276.17C701.816 276.209 701.763 276.232 701.707 276.232Z" fill="#BEC9E1"/>
<path d="M714.695 310.635V338.161H645.732C643.885 338.225 642.043 337.917 640.317 337.254C638.591 336.592 637.016 335.588 635.686 334.304C634.357 333.019 633.299 331.48 632.577 329.779C631.854 328.077 631.482 326.247 631.482 324.398C631.482 322.549 631.854 320.72 632.577 319.018C633.299 317.316 634.357 315.777 635.686 314.493C637.016 313.208 638.591 312.205 640.317 311.542C642.043 310.879 643.885 310.571 645.732 310.635H714.695Z" fill="#DAE0EE"/>
<path d="M716.388 337.949C716.388 338.23 716.277 338.499 716.078 338.698C715.88 338.896 715.61 339.008 715.33 339.008H644.504C640.657 339.008 636.968 337.48 634.248 334.76C631.528 332.04 630 328.351 630 324.504C630 320.657 631.528 316.968 634.248 314.248C636.968 311.528 640.657 310 644.504 310H715.33C715.61 310 715.88 310.112 716.078 310.31C716.277 310.509 716.388 310.778 716.388 311.059C716.388 311.339 716.277 311.609 716.078 311.807C715.88 312.006 715.61 312.117 715.33 312.117H644.504C641.221 312.12 638.073 313.427 635.753 315.749C633.432 318.072 632.128 321.221 632.128 324.504C632.128 327.787 633.432 330.936 635.753 333.259C638.073 335.581 641.221 336.888 644.504 336.891H715.33C715.61 336.891 715.88 337.002 716.078 337.201C716.277 337.399 716.388 337.668 716.388 337.949Z" fill="#5A09F3"/>
<path d="M714.694 316.987H640.587C640.559 316.987 640.531 316.982 640.505 316.971C640.479 316.961 640.456 316.945 640.436 316.925C640.416 316.906 640.401 316.882 640.39 316.857C640.379 316.831 640.374 316.803 640.374 316.775C640.374 316.747 640.379 316.72 640.39 316.694C640.401 316.668 640.416 316.645 640.436 316.625C640.456 316.605 640.479 316.59 640.505 316.579C640.531 316.569 640.559 316.563 640.587 316.563H714.694C714.75 316.564 714.804 316.586 714.843 316.626C714.883 316.666 714.905 316.719 714.905 316.775C714.905 316.831 714.883 316.885 714.843 316.924C714.804 316.964 714.75 316.987 714.694 316.987Z" fill="#BEC9E1"/>
<path d="M714.694 322.069H640.587C640.559 322.069 640.531 322.064 640.505 322.053C640.479 322.043 640.456 322.027 640.436 322.007C640.416 321.988 640.401 321.964 640.39 321.939C640.379 321.913 640.374 321.885 640.374 321.857C640.374 321.829 640.379 321.802 640.39 321.776C640.401 321.75 640.416 321.727 640.436 321.707C640.456 321.687 640.479 321.672 640.505 321.661C640.531 321.651 640.559 321.645 640.587 321.646H714.694C714.75 321.646 714.804 321.668 714.843 321.708C714.883 321.748 714.905 321.801 714.905 321.857C714.905 321.913 714.883 321.967 714.843 322.006C714.804 322.046 714.75 322.069 714.694 322.069Z" fill="#BEC9E1"/>
<path d="M714.694 327.151H640.587C640.559 327.151 640.531 327.146 640.505 327.135C640.479 327.125 640.456 327.109 640.436 327.09C640.416 327.07 640.401 327.046 640.39 327.021C640.379 326.995 640.374 326.967 640.374 326.939C640.374 326.911 640.379 326.884 640.39 326.858C640.401 326.832 640.416 326.809 640.436 326.789C640.456 326.769 640.479 326.754 640.505 326.743C640.531 326.733 640.559 326.727 640.587 326.728H714.694C714.75 326.728 714.804 326.75 714.843 326.79C714.883 326.83 714.905 326.883 714.905 326.939C714.905 326.995 714.883 327.049 714.843 327.088C714.804 327.128 714.75 327.151 714.694 327.151Z" fill="#BEC9E1"/>
<path d="M714.694 332.232H640.587C640.559 332.232 640.531 332.227 640.505 332.216C640.479 332.206 640.456 332.19 640.436 332.171C640.416 332.151 640.401 332.127 640.39 332.102C640.379 332.076 640.374 332.048 640.374 332.02C640.374 331.992 640.379 331.965 640.39 331.939C640.401 331.913 640.416 331.89 640.436 331.87C640.456 331.85 640.479 331.835 640.505 331.824C640.531 331.814 640.559 331.808 640.587 331.809H714.694C714.75 331.809 714.804 331.831 714.843 331.871C714.883 331.911 714.905 331.964 714.905 332.02C714.905 332.076 714.883 332.13 714.843 332.17C714.804 332.209 714.75 332.232 714.694 332.232Z" fill="#BEC9E1"/>
<path d="M701.695 281.635V309.161H632.732C630.885 309.225 629.043 308.917 627.317 308.254C625.591 307.592 624.016 306.588 622.686 305.304C621.357 304.019 620.299 302.48 619.577 300.779C618.854 299.077 618.482 297.247 618.482 295.398C618.482 293.549 618.854 291.72 619.577 290.018C620.299 288.316 621.357 286.777 622.686 285.493C624.016 284.208 625.591 283.205 627.317 282.542C629.043 281.879 630.885 281.571 632.732 281.635H701.695Z" fill="#DAE0EE"/>
<path d="M703.388 308.949C703.388 309.23 703.277 309.499 703.078 309.698C702.88 309.896 702.61 310.008 702.33 310.008H631.504C629.599 310.008 627.713 309.633 625.954 308.904C624.194 308.175 622.595 307.107 621.248 305.76C619.901 304.413 618.833 302.814 618.104 301.054C617.375 299.295 617 297.409 617 295.504C617 293.599 617.375 291.713 618.104 289.954C618.833 288.194 619.901 286.595 621.248 285.248C622.595 283.901 624.194 282.833 625.954 282.104C627.713 281.375 629.599 281 631.504 281H702.33C702.61 281 702.88 281.112 703.078 281.31C703.277 281.509 703.388 281.778 703.388 282.059C703.388 282.339 703.277 282.609 703.078 282.807C702.88 283.006 702.61 283.117 702.33 283.117H631.504C628.221 283.12 625.073 284.427 622.753 286.749C620.432 289.072 619.128 292.221 619.128 295.504C619.128 298.787 620.432 301.936 622.753 304.259C625.073 306.581 628.221 307.888 631.504 307.891H702.33C702.61 307.891 702.88 308.002 703.078 308.201C703.277 308.399 703.388 308.668 703.388 308.949Z" fill="#9FAFD2"/>
<path d="M701.694 287.987H627.587C627.559 287.987 627.531 287.982 627.505 287.971C627.479 287.961 627.456 287.945 627.436 287.925C627.416 287.906 627.401 287.882 627.39 287.857C627.379 287.831 627.374 287.803 627.374 287.775C627.374 287.747 627.379 287.72 627.39 287.694C627.401 287.668 627.416 287.645 627.436 287.625C627.456 287.605 627.479 287.59 627.505 287.579C627.531 287.569 627.559 287.563 627.587 287.563H701.694C701.75 287.564 701.804 287.586 701.843 287.626C701.883 287.666 701.905 287.719 701.905 287.775C701.905 287.831 701.883 287.885 701.843 287.924C701.804 287.964 701.75 287.987 701.694 287.987Z" fill="#BEC9E1"/>
<path d="M701.694 293.069H627.587C627.559 293.069 627.531 293.064 627.505 293.053C627.479 293.043 627.456 293.027 627.436 293.007C627.416 292.988 627.401 292.964 627.39 292.939C627.379 292.913 627.374 292.885 627.374 292.857C627.374 292.829 627.379 292.802 627.39 292.776C627.401 292.75 627.416 292.727 627.436 292.707C627.456 292.687 627.479 292.672 627.505 292.661C627.531 292.651 627.559 292.645 627.587 292.646H701.694C701.75 292.646 701.804 292.668 701.843 292.708C701.883 292.748 701.905 292.801 701.905 292.857C701.905 292.913 701.883 292.967 701.843 293.006C701.804 293.046 701.75 293.069 701.694 293.069Z" fill="#BEC9E1"/>
<path d="M701.694 298.151H627.587C627.559 298.151 627.531 298.146 627.505 298.135C627.479 298.125 627.456 298.109 627.436 298.09C627.416 298.07 627.401 298.046 627.39 298.021C627.379 297.995 627.374 297.967 627.374 297.939C627.374 297.911 627.379 297.884 627.39 297.858C627.401 297.832 627.416 297.809 627.436 297.789C627.456 297.769 627.479 297.754 627.505 297.743C627.531 297.733 627.559 297.727 627.587 297.728H701.694C701.75 297.728 701.804 297.75 701.843 297.79C701.883 297.83 701.905 297.883 701.905 297.939C701.905 297.995 701.883 298.049 701.843 298.088C701.804 298.128 701.75 298.151 701.694 298.151Z" fill="#BEC9E1"/>
<path d="M701.694 303.232H627.587C627.559 303.232 627.531 303.227 627.505 303.216C627.479 303.206 627.456 303.19 627.436 303.171C627.416 303.151 627.401 303.127 627.39 303.102C627.379 303.076 627.374 303.048 627.374 303.02C627.374 302.992 627.379 302.965 627.39 302.939C627.401 302.913 627.416 302.89 627.436 302.87C627.456 302.85 627.479 302.835 627.505 302.824C627.531 302.814 627.559 302.808 627.587 302.809H701.694C701.75 302.809 701.804 302.831 701.843 302.871C701.883 302.911 701.905 302.964 701.905 303.02C701.905 303.076 701.883 303.13 701.843 303.17C701.804 303.209 701.75 303.232 701.694 303.232Z" fill="#BEC9E1"/>
</svg>
